<svg width="60" height="60" viewBox="0 0 60 60" fill="none" xmlns="http://www.w3.org/2000/svg">
<path fill-rule="evenodd" clip-rule="evenodd" d="M13.4583 12.1667C12.8505 12.1667 12.2676 12.4081 11.8378 12.8379C11.408 13.2677 11.1666 13.8505 11.1666 14.4583V46.5417C11.1666 47.1495 11.408 47.7323 11.8378 48.1621C12.2676 48.5919 12.8505 48.8333 13.4583 48.8333H45.5416C46.1494 48.8333 46.7323 48.5919 47.162 48.1621C47.5918 47.7323 47.8332 47.1494 47.8332 46.5417V30.5C47.8332 29.2343 48.8593 28.2083 50.1249 28.2083C51.3906 28.2083 52.4166 29.2343 52.4166 30.5V46.5417C52.4166 48.365 51.6923 50.1137 50.4029 51.403C49.1136 52.6923 47.3649 53.4167 45.5416 53.4167H13.4583C11.6349 53.4167 9.8862 52.6923 8.59689 51.403C7.30758 50.1137 6.58325 48.365 6.58325 46.5417V14.4583C6.58325 12.635 7.30758 10.8863 8.59689 9.59697C9.88621 8.30766 11.6349 7.58333 13.4583 7.58333H29.4999C30.7656 7.58333 31.7916 8.60935 31.7916 9.875C31.7916 11.1407 30.7656 12.1667 29.4999 12.1667H13.4583Z" fill="white"/>
<path fill-rule="evenodd" clip-rule="evenodd" d="M36.375 14.4583C36.375 13.1927 37.401 12.1667 38.6667 12.1667H52.4167C53.6823 12.1667 54.7083 13.1927 54.7083 14.4583C54.7083 15.724 53.6823 16.75 52.4167 16.75H38.6667C37.401 16.75 36.375 15.724 36.375 14.4583Z" fill="white"/>
<path fill-rule="evenodd" clip-rule="evenodd" d="M45.5417 5.29167C46.8073 5.29167 47.8333 6.31768 47.8333 7.58333V21.3333C47.8333 22.599 46.8073 23.625 45.5417 23.625C44.276 23.625 43.25 22.599 43.25 21.3333V7.58333C43.25 6.31768 44.276 5.29167 45.5417 5.29167Z" fill="white"/>
<path fill-rule="evenodd" clip-rule="evenodd" d="M22.625 21.3333C21.3593 21.3333 20.3333 22.3593 20.3333 23.625C20.3333 24.8907 21.3593 25.9167 22.625 25.9167C23.8907 25.9167 24.9167 24.8907 24.9167 23.625C24.9167 22.3593 23.8907 21.3333 22.625 21.3333ZM15.75 23.625C15.75 19.828 18.828 16.75 22.625 16.75C26.422 16.75 29.5 19.828 29.5 23.625C29.5 27.422 26.422 30.5 22.625 30.5C18.828 30.5 15.75 27.422 15.75 23.625Z" fill="white"/>
<path fill-rule="evenodd" clip-rule="evenodd" d="M34.9518 28.6822C36.241 27.3934 37.9894 26.6693 39.8124 26.6693C41.6354 26.6693 43.3838 27.3934 44.673 28.6822L51.7454 35.7545C52.6403 36.6495 52.6403 38.1005 51.7454 38.9955C50.8504 39.8904 49.3994 39.8904 48.5045 38.9955L41.4326 31.9236C41.4325 31.9235 41.4327 31.9237 41.4326 31.9236C41.0029 31.4941 40.42 31.2526 39.8124 31.2526C39.2049 31.2526 38.6222 31.4939 38.1925 31.9234C38.1924 31.9234 38.1925 31.9233 38.1925 31.9234L17.3704 52.7455C16.4754 53.6404 15.0244 53.6404 14.1295 52.7455C13.2345 51.8505 13.2345 50.3995 14.1295 49.5045L34.9518 28.6822Z" fill="white"/>
</svg>
