<svg width="46" height="46" viewBox="0 0 46 46" fill="none" xmlns="http://www.w3.org/2000/svg">
<path fill-rule="evenodd" clip-rule="evenodd" d="M23 7.66663C24.0586 7.66663 24.9167 8.52475 24.9167 9.58329V36.4166C24.9167 37.4752 24.0586 38.3333 23 38.3333C21.9415 38.3333 21.0834 37.4752 21.0834 36.4166V9.58329C21.0834 8.52475 21.9415 7.66663 23 7.66663Z" fill="black"/>
<path fill-rule="evenodd" clip-rule="evenodd" d="M21.6447 8.228C22.3932 7.4795 23.6067 7.4795 24.3552 8.228L37.7719 21.6447C38.5204 22.3932 38.5204 23.6067 37.7719 24.3552C37.0234 25.1038 35.8098 25.1038 35.0613 24.3552L23 12.2939L10.9386 24.3552C10.1901 25.1038 8.97651 25.1038 8.228 24.3552C7.4795 23.6067 7.4795 22.3932 8.228 21.6447L21.6447 8.228Z" fill="black"/>
</svg>
