<svg width="46" height="46" viewBox="0 0 46 46" fill="none" xmlns="http://www.w3.org/2000/svg">
<path fill-rule="evenodd" clip-rule="evenodd" d="M23 7.66669C24.0586 7.66669 24.9167 8.52481 24.9167 9.58335V36.4167C24.9167 37.4752 24.0586 38.3334 23 38.3334C21.9415 38.3334 21.0834 37.4752 21.0834 36.4167V9.58335C21.0834 8.52481 21.9415 7.66669 23 7.66669Z" fill="black"/>
<path fill-rule="evenodd" clip-rule="evenodd" d="M8.228 21.6447C8.97651 20.8962 10.1901 20.8962 10.9386 21.6447L23 33.7061L35.0613 21.6447C35.8098 20.8962 37.0234 20.8962 37.7719 21.6447C38.5204 22.3932 38.5204 23.6068 37.7719 24.3553L24.3552 37.7719C23.6067 38.5204 22.3932 38.5204 21.6447 37.7719L8.228 24.3553C7.4795 23.6068 7.4795 22.3932 8.228 21.6447Z" fill="black"/>
</svg>
