<svg width="55" height="55" viewBox="0 0 55 55" fill="none" xmlns="http://www.w3.org/2000/svg">
<path fill-rule="evenodd" clip-rule="evenodd" d="M23.5877 5.25454C24.4826 4.35959 25.9336 4.35959 26.8286 5.25454L45.1619 23.5879C46.0569 24.4828 46.0569 25.9338 45.1619 26.8288L25.4536 46.5371C22.7253 49.2654 18.5243 49.2654 15.796 46.5371L3.86314 34.6042C2.60345 33.3191 1.89795 31.5912 1.89795 29.7917C1.89795 27.9921 2.60353 26.2643 3.86322 24.9792L3.87926 24.9628L23.5877 5.25454ZM7.12973 28.1943C6.714 28.622 6.48128 29.195 6.48128 29.7917C6.48128 30.3883 6.714 30.9614 7.12973 31.389L19.0369 43.2962C19.9753 44.2346 21.2743 44.2346 22.2127 43.2962L40.3005 25.2083L25.2081 10.1159L7.12973 28.1943Z" fill="white"/>
<path fill-rule="evenodd" clip-rule="evenodd" d="M9.83772 2.96289C10.7327 2.06793 12.1837 2.06793 13.0786 2.96289L24.537 14.4212C25.4319 15.3162 25.4319 16.7672 24.537 17.6621C23.642 18.5571 22.191 18.5571 21.2961 17.6621L9.83772 6.20379C8.94277 5.30884 8.94277 3.85784 9.83772 2.96289Z" fill="white"/>
<path fill-rule="evenodd" clip-rule="evenodd" d="M2.2915 29.7917C2.2915 28.526 3.31752 27.5 4.58317 27.5H38.9582C40.2238 27.5 41.2498 28.526 41.2498 29.7917C41.2498 31.0573 40.2238 32.0833 38.9582 32.0833H4.58317C3.31752 32.0833 2.2915 31.0573 2.2915 29.7917Z" fill="white"/>
<path fill-rule="evenodd" clip-rule="evenodd" d="M45.8335 34.375C46.9363 34.375 47.8827 35.1604 48.0859 36.2443C48.3009 37.3911 48.9899 38.2845 50.0995 39.7231C50.1319 39.7653 50.1648 39.8078 50.198 39.8509C51.2377 41.1997 52.7085 43.1377 52.7085 45.8333C52.7085 47.6567 51.9842 49.4054 50.6949 50.6947C49.4055 51.984 47.6569 52.7083 45.8335 52.7083C44.0101 52.7083 42.2614 51.984 40.9721 50.6947C39.6828 49.4054 38.9585 47.6567 38.9585 45.8333C38.9585 43.1377 40.4293 41.1997 41.469 39.8509C41.5022 39.8078 41.535 39.7653 41.5675 39.7231C42.6771 38.2845 43.3661 37.3911 43.5811 36.2443C43.7843 35.1604 44.7307 34.375 45.8335 34.375ZM45.099 42.6491C44.019 44.0503 43.5418 44.8623 43.5418 45.8333C43.5418 46.4411 43.7833 47.024 44.213 47.4538C44.6428 47.8836 45.2257 48.125 45.8335 48.125C46.4413 48.125 47.0242 47.8836 47.4539 47.4538C47.8837 47.024 48.1252 46.4411 48.1252 45.8333C48.1252 44.8623 47.648 44.0503 46.568 42.6491C46.4889 42.5466 46.4057 42.4399 46.3192 42.3291C46.1657 42.1325 46.002 41.9228 45.8335 41.6997C45.665 41.9228 45.5013 42.1325 45.3478 42.3291C45.2613 42.4399 45.1781 42.5466 45.099 42.6491Z" fill="white"/>
</svg>
