<svg width="56" height="56" viewBox="0 0 56 56" fill="none" xmlns="http://www.w3.org/2000/svg">
<path fill-rule="evenodd" clip-rule="evenodd" d="M22.7455 21.7962C23.6404 22.6912 23.6404 24.1422 22.7455 25.0371L12.9076 34.875L22.7455 44.7129C23.6404 45.6078 23.6404 47.0588 22.7455 47.9538C21.8505 48.8487 20.3995 48.8487 19.5045 47.9538L8.04621 36.4955C7.15126 35.6005 7.15126 34.1495 8.04621 33.2545L19.5045 21.7962C20.3995 20.9013 21.8505 20.9013 22.7455 21.7962Z" fill="white"/>
<path fill-rule="evenodd" clip-rule="evenodd" d="M46.3333 7.375C47.599 7.375 48.625 8.40101 48.625 9.66667V25.7083C48.625 28.7473 47.4178 31.6617 45.2689 33.8106C43.1201 35.9595 40.2056 37.1667 37.1667 37.1667H9.66667C8.40101 37.1667 7.375 36.1407 7.375 34.875C7.375 33.6093 8.40101 32.5833 9.66667 32.5833H37.1667C38.99 32.5833 40.7387 31.859 42.028 30.5697C43.3173 29.2804 44.0417 27.5317 44.0417 25.7083V9.66667C44.0417 8.40101 45.0677 7.375 46.3333 7.375Z" fill="white"/>
</svg>
