<svg width="55" height="55" viewBox="0 0 55 55" fill="none" xmlns="http://www.w3.org/2000/svg">
<path fill-rule="evenodd" clip-rule="evenodd" d="M6.87516 32.0833C8.14082 32.0833 9.16683 33.1093 9.16683 34.375V43.5417C9.16683 44.1495 9.40827 44.7323 9.83804 45.1621C10.2678 45.5919 10.8507 45.8333 11.4585 45.8333H43.5418C44.1496 45.8333 44.7325 45.5919 45.1623 45.1621C45.5921 44.7323 45.8335 44.1495 45.8335 43.5417V34.375C45.8335 33.1093 46.8595 32.0833 48.1252 32.0833C49.3908 32.0833 50.4168 33.1093 50.4168 34.375V43.5417C50.4168 45.365 49.6925 47.1137 48.4032 48.403C47.1139 49.6923 45.3652 50.4167 43.5418 50.4167H11.4585C9.63513 50.4167 7.88645 49.6923 6.59714 48.403C5.30782 47.1137 4.5835 45.365 4.5835 43.5417V34.375C4.5835 33.1093 5.60951 32.0833 6.87516 32.0833Z" fill="white"/>
<path fill-rule="evenodd" clip-rule="evenodd" d="M14.4212 21.2962C15.3162 20.4013 16.7672 20.4013 17.6621 21.2962L27.5 31.1341L37.3379 21.2962C38.2328 20.4013 39.6838 20.4013 40.5788 21.2962C41.4737 22.1912 41.4737 23.6422 40.5788 24.5371L29.1205 35.9955C28.2255 36.8904 26.7745 36.8904 25.8795 35.9955L14.4212 24.5371C13.5263 23.6422 13.5263 22.1912 14.4212 21.2962Z" fill="white"/>
<path fill-rule="evenodd" clip-rule="evenodd" d="M27.5002 4.58333C28.7658 4.58333 29.7918 5.60935 29.7918 6.875V34.375C29.7918 35.6407 28.7658 36.6667 27.5002 36.6667C26.2345 36.6667 25.2085 35.6407 25.2085 34.375V6.875C25.2085 5.60935 26.2345 4.58333 27.5002 4.58333Z" fill="white"/>
</svg>
