<svg width="56" height="56" viewBox="0 0 56 56" fill="none" xmlns="http://www.w3.org/2000/svg">
<path fill-rule="evenodd" clip-rule="evenodd" d="M4.04935 7.10389C5.33824 5.815 7.08634 5.09091 8.9091 5.09091H24.9455C26.2107 5.09091 27.2364 6.11659 27.2364 7.38182C27.2364 8.64706 26.2107 9.67273 24.9455 9.67273H8.9091C8.30152 9.67273 7.71881 9.91409 7.28919 10.3437C6.85956 10.7733 6.6182 11.3561 6.6182 11.9636V44.0364C6.6182 44.644 6.85956 45.2267 7.28919 45.6563C7.71882 46.0859 8.30152 46.3273 8.9091 46.3273H40.9818C41.5894 46.3273 42.1721 46.0859 42.6017 45.6563C43.0314 45.2267 43.2727 44.6439 43.2727 44.0364V28C43.2727 26.7348 44.2984 25.7091 45.5636 25.7091C46.8289 25.7091 47.8546 26.7348 47.8546 28V44.0364C47.8546 45.8591 47.1305 47.6072 45.8416 48.8961C44.5527 50.185 42.8046 50.9091 40.9818 50.9091H8.9091C7.08634 50.9091 5.33824 50.185 4.04935 48.8961C2.76047 47.6072 2.03638 45.8591 2.03638 44.0364V11.9636C2.03638 10.1409 2.76047 8.39277 4.04935 7.10389Z" fill="white"/>
<path fill-rule="evenodd" clip-rule="evenodd" d="M45.8487 4.54733C45.1725 4.54733 44.5241 4.81594 44.0459 5.29407L22.8914 26.4486L21.6896 31.256L26.497 30.0541L47.6515 8.89961C48.1296 8.42149 48.3982 7.77301 48.3982 7.09684C48.3982 6.42067 48.1296 5.77219 47.6515 5.29407C47.1734 4.81594 46.5249 4.54733 45.8487 4.54733ZM40.8305 2.07862C42.1614 0.747701 43.9665 0 45.8487 0C47.7309 0 49.536 0.747701 50.8669 2.07862C52.1979 3.40953 52.9456 5.21464 52.9456 7.09684C52.9456 8.97904 52.1979 10.7841 50.8669 12.1151L29.2671 33.7149C28.9757 34.0063 28.6106 34.213 28.2108 34.3129L19.1162 36.5866C18.3414 36.7803 17.5217 36.5533 16.957 35.9886C16.3923 35.4238 16.1652 34.6042 16.3589 33.8294L18.6326 24.7347C18.7326 24.3349 18.9393 23.9698 19.2307 23.6784L40.8305 2.07862Z" fill="white"/>
</svg>
