<svg width="56" height="56" viewBox="0 0 56 56" fill="none" xmlns="http://www.w3.org/2000/svg">
<path fill-rule="evenodd" clip-rule="evenodd" d="M34.7757 10.5122C33.6687 9.28216 31.7547 9.15284 30.3079 10.5996L8.3079 32.5996C8.27949 32.6281 8.25035 32.6557 8.22049 32.6826C6.99041 33.7896 6.86109 35.7036 8.3079 37.1504L18.1621 47.0046C19.057 47.8995 19.057 49.3505 18.1621 50.2455C17.2671 51.1404 15.8161 51.1404 14.9212 50.2455L5.06699 40.3913C1.94562 37.2699 1.80246 32.3416 5.10605 29.3197L27.067 7.35874C30.1884 4.23736 35.1167 4.09421 38.1386 7.3978L50.9329 20.1921C54.0543 23.3134 54.1974 28.2417 50.8939 31.2637L31.9121 50.2455C31.0171 51.1404 29.5661 51.1404 28.6712 50.2455C27.7762 49.3505 27.7762 47.8995 28.6712 47.0046L47.692 27.9837C47.7204 27.9553 47.7495 27.9277 47.7794 27.9008C49.0095 26.7937 49.1388 24.8798 47.692 23.433L34.8587 10.5996C34.8303 10.5712 34.8026 10.5421 34.7757 10.5122Z" fill="white"/>
<path fill-rule="evenodd" clip-rule="evenodd" d="M14.25 48.6249C14.25 47.3593 15.276 46.3333 16.5417 46.3333H50.9167C52.1823 46.3333 53.2083 47.3593 53.2083 48.6249C53.2083 49.8906 52.1823 50.9166 50.9167 50.9166H16.5417C15.276 50.9166 14.25 49.8906 14.25 48.6249Z" fill="white"/>
<path fill-rule="evenodd" clip-rule="evenodd" d="M10.3378 24.088C11.2328 23.193 12.6838 23.193 13.5787 24.088L34.2037 44.713C35.0987 45.6079 35.0987 47.0589 34.2037 47.9539C33.3088 48.8488 31.8578 48.8488 30.9628 47.9539L10.3378 27.3289C9.44289 26.4339 9.44289 24.9829 10.3378 24.088Z" fill="white"/>
</svg>
