<svg width="55" height="55" viewBox="0 0 55 55" fill="none" xmlns="http://www.w3.org/2000/svg">
<path fill-rule="evenodd" clip-rule="evenodd" d="M9.85499 5.85499C11.0427 4.66726 12.6536 4 14.3333 4H32.2777C32.8376 4 33.3746 4.22242 33.7705 4.61833L45.3816 16.2294C45.7775 16.6253 45.9999 17.1623 45.9999 17.7222V44.111C45.9999 45.7907 45.3327 47.4016 44.1449 48.5894C42.9572 49.7771 41.3463 50.4444 39.6666 50.4444H14.3333C12.6536 50.4444 11.0427 49.7771 9.85499 48.5894C8.66726 47.4016 8 45.7907 8 44.111V10.3333C8 8.65362 8.66726 7.04271 9.85499 5.85499ZM14.3333 8.22221C13.7734 8.22221 13.2365 8.44463 12.8405 8.84054C12.4446 9.23645 12.2222 9.77342 12.2222 10.3333V44.111C12.2222 44.6709 12.4446 45.2079 12.8405 45.6038C13.2365 45.9997 13.7734 46.2221 14.3333 46.2221H39.6666C40.2265 46.2221 40.7635 45.9997 41.1594 45.6038C41.5553 45.2079 41.7777 44.6709 41.7777 44.111V18.5966L31.4033 8.22221H14.3333Z" fill="white"/>
<path fill-rule="evenodd" clip-rule="evenodd" d="M31.2222 4C32.3881 4 33.3333 4.94517 33.3333 6.11111V16.6666H43.8888C45.0548 16.6666 45.9999 17.6118 45.9999 18.7777C45.9999 19.9437 45.0548 20.8889 43.8888 20.8889H31.2222C30.0563 20.8889 29.1111 19.9437 29.1111 18.7777V6.11111C29.1111 4.94517 30.0563 4 31.2222 4Z" fill="white"/>
<path fill-rule="evenodd" clip-rule="evenodd" d="M22.7779 27.2222C21.612 27.2222 20.6668 28.1673 20.6668 29.3333C20.6668 30.4992 21.612 31.4444 22.7779 31.4444C23.9438 31.4444 24.889 30.4992 24.889 29.3333C24.889 28.1673 23.9438 27.2222 22.7779 27.2222ZM16.4446 29.3333C16.4446 25.8355 19.2801 22.9999 22.7779 22.9999C26.2757 22.9999 29.1112 25.8355 29.1112 29.3333C29.1112 32.8311 26.2757 35.6666 22.7779 35.6666C19.2801 35.6666 16.4446 32.8311 16.4446 29.3333Z" fill="white"/>
<path fill-rule="evenodd" clip-rule="evenodd" d="M34.1462 33.9794C35.3328 32.7998 36.938 32.1377 38.6112 32.1377C40.2843 32.1377 41.8895 32.7998 43.0761 33.9794L43.0806 33.9838L45.3817 36.2849C46.2061 37.1094 46.2061 38.446 45.3817 39.2705C44.5573 40.0949 43.2206 40.0949 42.3961 39.2705L40.0995 36.9738C40.0989 36.9732 40.0983 36.9726 40.0977 36.972C39.7023 36.5799 39.168 36.3599 38.6112 36.3599C38.0543 36.3599 37.52 36.5799 37.1247 36.972C37.124 36.9726 37.1234 36.9732 37.1228 36.9738L24.2706 49.826C23.4462 50.6504 22.1095 50.6504 21.2851 49.826C20.4606 49.0016 20.4606 47.6649 21.2851 46.8405L34.1417 33.9838L34.1462 33.9794Z" fill="white"/>
</svg>
