<svg width="55" height="55" viewBox="0 0 55 55" fill="none" xmlns="http://www.w3.org/2000/svg">
<path fill-rule="evenodd" clip-rule="evenodd" d="M6.875 9.16667C6.875 7.90101 7.90101 6.875 9.16667 6.875H45.8333C47.099 6.875 48.125 7.90101 48.125 9.16667V16.0417C48.125 17.3073 47.099 18.3333 45.8333 18.3333C44.5677 18.3333 43.5417 17.3073 43.5417 16.0417V11.4583H11.4583V16.0417C11.4583 17.3073 10.4323 18.3333 9.16667 18.3333C7.90101 18.3333 6.875 17.3073 6.875 16.0417V9.16667Z" fill="white"/>
<path fill-rule="evenodd" clip-rule="evenodd" d="M18.3335 45.8333C18.3335 44.5677 19.3595 43.5417 20.6252 43.5417H34.3752C35.6408 43.5417 36.6668 44.5677 36.6668 45.8333C36.6668 47.099 35.6408 48.125 34.3752 48.125H20.6252C19.3595 48.125 18.3335 47.099 18.3335 45.8333Z" fill="white"/>
<path fill-rule="evenodd" clip-rule="evenodd" d="M27.5002 6.875C28.7658 6.875 29.7918 7.90101 29.7918 9.16667V45.8333C29.7918 47.099 28.7658 48.125 27.5002 48.125C26.2345 48.125 25.2085 47.099 25.2085 45.8333V9.16667C25.2085 7.90101 26.2345 6.875 27.5002 6.875Z" fill="white"/>
<path fill-rule="evenodd" clip-rule="evenodd" d="M27.4997 6.875C28.7653 6.875 29.7913 7.90101 29.7913 9.16667V45.8333C29.7913 47.099 28.7653 48.125 27.4997 48.125C26.234 48.125 25.208 47.099 25.208 45.8333V9.16667C25.208 7.90101 26.234 6.875 27.4997 6.875Z" fill="white"/>
</svg>
