<svg width="55" height="55" viewBox="0 0 55 55" fill="none" xmlns="http://www.w3.org/2000/svg">
<path fill-rule="evenodd" clip-rule="evenodd" d="M15 7.29167C15 6.02601 16.026 5 17.2917 5H37.9167C39.1823 5 40.2083 6.02601 40.2083 7.29167C40.2083 8.55732 39.1823 9.58333 37.9167 9.58333H17.2917C16.026 9.58333 15 8.55732 15 7.29167Z" fill="white"/>
<path fill-rule="evenodd" clip-rule="evenodd" d="M15 47.2917C15 46.026 16.026 45 17.2917 45H37.9167C39.1823 45 40.2083 46.026 40.2083 47.2917C40.2083 48.5573 39.1823 49.5833 37.9167 49.5833H17.2917C16.026 49.5833 15 48.5573 15 47.2917Z" fill="white"/>
<path fill-rule="evenodd" clip-rule="evenodd" d="M27.7888 5.66803C29.0544 5.66 30.0869 6.67949 30.0949 7.94512L30.3432 47.1043C30.3513 48.37 29.3318 49.4025 28.0662 49.4105C26.8005 49.4185 25.768 48.399 25.76 47.1334L25.5117 7.97418C25.5037 6.70855 26.5232 5.67605 27.7888 5.66803Z" fill="white"/>
</svg>
