<svg width="55" height="55" viewBox="0 0 55 55" fill="none" xmlns="http://www.w3.org/2000/svg">
<path fill-rule="evenodd" clip-rule="evenodd" d="M28.206 5.82607C30.4784 3.63134 33.5218 2.41691 36.6809 2.44436C39.84 2.47182 42.8619 3.73895 45.0958 5.97284C47.3297 8.20673 48.5968 11.2287 48.6243 14.3877C48.6518 17.5468 47.4373 20.5903 45.2426 22.8627L45.2181 22.8876L39.1941 28.9116C37.9727 30.1335 36.5027 31.0784 34.884 31.6822C33.2653 32.286 31.5356 32.5347 29.8123 32.4113C28.089 32.2878 26.4124 31.7953 24.8963 30.9669C23.3801 30.1385 22.0598 28.9938 21.025 27.6103C20.3607 26.7223 20.5421 25.4638 21.4302 24.7995C22.3182 24.1352 23.5767 24.3167 24.241 25.2047C24.9309 26.127 25.8111 26.8902 26.8218 27.4424C27.8326 27.9947 28.9503 28.3231 30.0992 28.4054C31.2481 28.4876 32.4012 28.3219 33.4803 27.9193C34.5595 27.5168 35.5395 26.8868 36.3538 26.0722L36.354 26.072L42.3652 20.0607C43.8212 18.5471 44.6265 16.5232 44.6083 14.4226C44.59 12.3166 43.7452 10.302 42.256 8.8127C40.7667 7.32344 38.7521 6.47869 36.646 6.46039C34.5446 6.44212 32.5198 7.24818 31.006 8.70532L27.5629 12.1284C26.7764 12.9103 25.505 12.9066 24.723 12.1201C23.9411 11.3336 23.9448 10.0621 24.7313 9.28023L28.1852 5.8464L28.206 5.82607Z" fill="white"/>
<path fill-rule="evenodd" clip-rule="evenodd" d="M16.1617 19.0815C17.7804 18.4777 19.5101 18.229 21.2333 18.3524C22.9566 18.4759 24.6332 18.9684 26.1494 19.7968C27.6656 20.6252 28.9858 21.7699 30.0207 23.1534C30.685 24.0414 30.5036 25.2999 29.6155 25.9642C28.7274 26.6285 27.469 26.4471 26.8047 25.559C26.1148 24.6367 25.2346 23.8735 24.2238 23.3213C23.213 22.769 22.0953 22.4406 20.9465 22.3584C19.7976 22.2761 18.6445 22.4418 17.5653 22.8444C16.4862 23.247 15.5062 23.8769 14.6919 24.6915L8.68041 30.703C7.22447 32.2166 6.41912 34.2405 6.43738 36.3411C6.45568 38.4471 7.30043 40.4617 8.78969 41.951C10.279 43.4403 12.2936 44.285 14.3996 44.3033C16.5002 44.3216 18.5241 43.5162 20.0377 42.0603L23.4585 38.6395C24.2427 37.8553 25.5142 37.8553 26.2984 38.6395C27.0826 39.4237 27.0826 40.6951 26.2984 41.4793L22.8646 44.9132L22.8397 44.9376C20.5673 47.1324 17.5238 48.3468 14.3647 48.3193C11.2056 48.2919 8.18372 47.0248 5.94983 44.7909C3.71594 42.557 2.44881 39.5351 2.42135 36.376C2.3939 33.2169 3.60833 30.1734 5.80306 27.901L5.82752 27.8761L11.8515 21.8521C11.8516 21.852 11.8514 21.8522 11.8515 21.8521C13.0729 20.6304 14.543 19.6853 16.1617 19.0815Z" fill="white"/>
</svg>
