<svg width="60" height="60" viewBox="0 0 60 60" fill="none" xmlns="http://www.w3.org/2000/svg">
<g clip-path="url(#clip0_335_396)">
<path fill-rule="evenodd" clip-rule="evenodd" d="M41.6295 5.96289C42.5244 5.06793 43.9754 5.06793 44.8704 5.96289L54.037 15.1296C54.932 16.0245 54.932 17.4755 54.037 18.3705C53.1421 19.2654 51.6911 19.2654 50.7961 18.3705L41.6295 9.20379C40.7345 8.30884 40.7345 6.85784 41.6295 5.96289Z" fill="white"/>
<path fill-rule="evenodd" clip-rule="evenodd" d="M34.7544 12.8379C35.6494 11.9429 37.1004 11.9429 37.9953 12.8379L47.162 22.0045C48.057 22.8995 48.057 24.3505 47.162 25.2455L20.8078 51.5996C20.5258 51.8816 20.1751 52.0851 19.7904 52.1901L7.1862 55.6276C6.3928 55.844 5.54428 55.6186 4.96277 55.0371C4.38126 54.4556 4.15592 53.6071 4.37231 52.8137L7.80981 40.2095C7.91474 39.8248 8.11827 39.474 8.40027 39.192L34.7544 12.8379ZM12.0715 42.0026L9.84935 50.1505L17.9973 47.9284L42.3007 23.625L36.3749 17.6992L12.0715 42.0026Z" fill="white"/>
<rect x="-37.645" y="73.6078" width="40.0127" height="40.0127" transform="rotate(-27.6919 -37.645 73.6078)" stroke="#E9E9E9"/>
</g>
<defs>
<clipPath id="clip0_335_396">
<rect width="60" height="60" rx="15" fill="white"/>
</clipPath>
</defs>
</svg>
