<svg width="55" height="55" viewBox="0 0 55 55" fill="none" xmlns="http://www.w3.org/2000/svg">
<path fill-rule="evenodd" clip-rule="evenodd" d="M12.3 11.2C11.1402 11.2 10.2 12.1402 10.2 13.3V42.7C10.2 43.8598 11.1402 44.8 12.3 44.8H41.7C42.8598 44.8 43.8 43.8598 43.8 42.7V13.3C43.8 12.1402 42.8598 11.2 41.7 11.2H12.3ZM6 13.3C6 9.82061 8.82061 7 12.3 7H41.7C45.1794 7 48 9.82061 48 13.3V42.7C48 46.1794 45.1794 49 41.7 49H12.3C8.82061 49 6 46.1794 6 42.7V13.3Z" fill="white"/>
<path fill-rule="evenodd" clip-rule="evenodd" d="M27.1 18C28.2598 18 29.2 18.9402 29.2 20.1V36.9C29.2 38.0598 28.2598 39 27.1 39C25.9402 39 25 38.0598 25 36.9V20.1C25 18.9402 25.9402 18 27.1 18Z" fill="white"/>
<path fill-rule="evenodd" clip-rule="evenodd" d="M16 28.1C16 26.9402 16.9402 26 18.1 26H34.9C36.0598 26 37 26.9402 37 28.1C37 29.2598 36.0598 30.2 34.9 30.2H18.1C16.9402 30.2 16 29.2598 16 28.1Z" fill="white"/>
</svg>
