<svg width="60" height="60" viewBox="0 0 60 60" fill="none" xmlns="http://www.w3.org/2000/svg">
<path fill-rule="evenodd" clip-rule="evenodd" d="M12.4091 20.2727C11.2292 20.2727 10.2727 21.2292 10.2727 22.409V39.5C10.2727 40.6798 11.2292 41.6363 12.4091 41.6363H46.5909C47.7708 41.6363 48.7273 40.6798 48.7273 39.5V22.409C48.7273 21.2292 47.7708 20.2727 46.5909 20.2727H12.4091ZM6 22.409C6 18.8694 8.86945 16 12.4091 16H46.5909C50.1306 16 53 18.8694 53 22.409V39.5C53 43.0396 50.1306 45.909 46.5909 45.909H12.4091C8.86945 45.909 6 43.0396 6 39.5V22.409Z" fill="white"/>
</svg>
