<svg width="55" height="55" viewBox="0 0 55 55" fill="none" xmlns="http://www.w3.org/2000/svg">
<path fill-rule="evenodd" clip-rule="evenodd" d="M49.7456 5.25455C50.6406 6.1495 50.6406 7.6005 49.7456 8.49546L22.2456 35.9955C21.3507 36.8904 19.8997 36.8904 19.0047 35.9955C18.1098 35.1005 18.1098 33.6495 19.0047 32.7545L46.5047 5.25455C47.3997 4.3596 48.8507 4.3596 49.7456 5.25455Z" fill="white"/>
<path fill-rule="evenodd" clip-rule="evenodd" d="M4.5835 6.875C4.5835 5.60935 5.60951 4.58334 6.87516 4.58334H27.5002C28.7658 4.58334 29.7918 5.60935 29.7918 6.875C29.7918 8.14065 28.7658 9.16667 27.5002 9.16667H9.16683V45.8333H45.8335V27.5C45.8335 26.2343 46.8595 25.2083 48.1252 25.2083C49.3908 25.2083 50.4168 26.2343 50.4168 27.5V48.125C50.4168 49.3907 49.3908 50.4167 48.1252 50.4167H6.87516C5.60951 50.4167 4.5835 49.3907 4.5835 48.125V6.875Z" fill="white"/>
<path fill-rule="evenodd" clip-rule="evenodd" d="M34.375 6.875C34.375 5.60935 35.401 4.58334 36.6667 4.58334H48.125C49.3907 4.58334 50.4167 5.60935 50.4167 6.875V18.3333C50.4167 19.599 49.3907 20.625 48.125 20.625C46.8593 20.625 45.8333 19.599 45.8333 18.3333V9.16667H36.6667C35.401 9.16667 34.375 8.14065 34.375 6.875Z" fill="white"/>
<path fill-rule="evenodd" clip-rule="evenodd" d="M20.6252 20.625C21.8908 20.625 22.9168 21.651 22.9168 22.9167V32.0833H32.0835C33.3491 32.0833 34.3752 33.1093 34.3752 34.375C34.3752 35.6407 33.3491 36.6667 32.0835 36.6667H20.6252C19.3595 36.6667 18.3335 35.6407 18.3335 34.375V22.9167C18.3335 21.651 19.3595 20.625 20.6252 20.625Z" fill="white"/>
</svg>
