<svg width="56" height="56" viewBox="0 0 56 56" fill="none" xmlns="http://www.w3.org/2000/svg">
<path fill-rule="evenodd" clip-rule="evenodd" d="M5.08337 14.2499C5.08337 12.9843 6.10939 11.9583 7.37504 11.9583H48.625C49.8907 11.9583 50.9167 12.9843 50.9167 14.2499C50.9167 15.5156 49.8907 16.5416 48.625 16.5416H7.37504C6.10939 16.5416 5.08337 15.5156 5.08337 14.2499Z" fill="white"/>
<path fill-rule="evenodd" clip-rule="evenodd" d="M11.9583 11.9583C13.2239 11.9583 14.25 12.9843 14.25 14.2499V46.3333C14.25 46.7338 14.4733 47.3261 15.011 47.8638C15.5488 48.4016 16.1411 48.6249 16.5416 48.6249H39.4583C39.8588 48.6249 40.4511 48.4016 40.9889 47.8638C41.5266 47.3261 41.75 46.7338 41.75 46.3333V14.2499C41.75 12.9843 42.776 11.9583 44.0416 11.9583C45.3073 11.9583 46.3333 12.9843 46.3333 14.2499V46.3333C46.3333 48.2244 45.4108 49.9237 44.2298 51.1047C43.0488 52.2857 41.3494 53.2083 39.4583 53.2083H16.5416C14.6505 53.2083 12.9511 52.2857 11.7701 51.1047C10.5891 49.9237 9.66663 48.2244 9.66663 46.3333V14.2499C9.66663 12.9843 10.6926 11.9583 11.9583 11.9583Z" fill="white"/>
<path fill-rule="evenodd" clip-rule="evenodd" d="M21.886 8.13616C21.3483 8.67391 21.125 9.26624 21.125 9.66675V14.2501C21.125 15.5157 20.0989 16.5417 18.8333 16.5417C17.5676 16.5417 16.5416 15.5157 16.5416 14.2501V9.66675C16.5416 7.77559 17.4641 6.07625 18.6451 4.89525C19.8261 3.71425 21.5255 2.79175 23.4166 2.79175H32.5833C34.4744 2.79175 36.1738 3.71425 37.3548 4.89525C38.5358 6.07625 39.4583 7.77559 39.4583 9.66675V14.2501C39.4583 15.5157 38.4323 16.5417 37.1666 16.5417C35.901 16.5417 34.875 15.5157 34.875 14.2501V9.66675C34.875 9.26624 34.6516 8.67391 34.1139 8.13616C33.5761 7.59841 32.9838 7.37508 32.5833 7.37508H23.4166C23.0161 7.37508 22.4238 7.59841 21.886 8.13616Z" fill="white"/>
<path fill-rule="evenodd" clip-rule="evenodd" d="M23.4167 23.4167C24.6823 23.4167 25.7083 24.4428 25.7083 25.7084V39.4584C25.7083 40.7241 24.6823 41.7501 23.4167 41.7501C22.151 41.7501 21.125 40.7241 21.125 39.4584V25.7084C21.125 24.4428 22.151 23.4167 23.4167 23.4167Z" fill="white"/>
<path fill-rule="evenodd" clip-rule="evenodd" d="M32.5833 23.4167C33.8489 23.4167 34.875 24.4428 34.875 25.7084V39.4584C34.875 40.7241 33.8489 41.7501 32.5833 41.7501C31.3176 41.7501 30.2916 40.7241 30.2916 39.4584V25.7084C30.2916 24.4428 31.3176 23.4167 32.5833 23.4167Z" fill="white"/>
</svg>
