<svg width="55" height="55" viewBox="0 0 55 55" fill="none" xmlns="http://www.w3.org/2000/svg">
<path fill-rule="evenodd" clip-rule="evenodd" d="M13.7497 6.875C15.0153 6.875 16.0413 7.90101 16.0413 9.16667V22.9167C16.0413 25.9556 17.2486 28.8701 19.3974 31.0189C21.5463 33.1678 24.4607 34.375 27.4997 34.375C30.5386 34.375 33.4531 33.1678 35.6019 31.0189C37.7508 28.8701 38.958 25.9556 38.958 22.9167V9.16667C38.958 7.90101 39.984 6.875 41.2497 6.875C42.5153 6.875 43.5413 7.90101 43.5413 9.16667V22.9167C43.5413 27.1712 41.8512 31.2514 38.8428 34.2598C35.8344 37.2682 31.7542 38.9583 27.4997 38.9583C23.2452 38.9583 19.1649 37.2682 16.1565 34.2598C13.1481 31.2514 11.458 27.1712 11.458 22.9167V9.16667C11.458 7.90101 12.484 6.875 13.7497 6.875Z" fill="white"/>
<path fill-rule="evenodd" clip-rule="evenodd" d="M20 46C20 44.8954 20.3731 44 20.8333 44H34.1667C34.6269 44 35 44.8954 35 46C35 47.1046 34.6269 48 34.1667 48H20.8333C20.3731 48 20 47.1046 20 46Z" fill="white"/>
</svg>
